<?xml version="1.0" encoding="UTF-8"?>
<svg id="Layer_1" xmlns="http://www.w3.org/2000/svg" version="1.1" viewBox="0 0 309.01 26.7">
  <!-- Generator: Adobe Illustrator 29.8.2, SVG Export Plug-In . SVG Version: 2.1.1 Build 3)  -->
  <polygon points="0 5.31 8.26 5.31 8.26 26.25 14.23 26.25 14.23 5.31 22.49 5.31 22.49 .44 0 .44 0 5.31"/>
  <path d="M43.43,17.96c1.67-.74,2.96-1.8,3.87-3.19.91-1.39,1.36-3.04,1.36-4.96s-.46-3.61-1.36-5.01c-.91-1.4-2.2-2.48-3.87-3.23-1.67-.75-3.66-1.12-5.97-1.12h-11.17v25.81h5.97v-7.19h5.2c.09,0,.18,0,.27,0l4.96,7.2h6.45l-5.77-8.28s.04,0,.05-.02h.01ZM41.26,6.49c.91.79,1.36,1.89,1.36,3.32s-.45,2.5-1.36,3.3-2.29,1.2-4.13,1.2h-4.87V5.31h4.87c1.84,0,3.22.39,4.13,1.18Z"/>
  <rect x="53.98" y=".44" width="5.97" height="25.81"/>
  <path d="M83.8,1.57c-1.67-.75-3.66-1.12-5.97-1.12h-11.17v25.81h5.97v-7.11h5.2c2.31,0,4.3-.38,5.97-1.12,1.67-.75,2.96-1.83,3.87-3.23.91-1.4,1.36-3.06,1.36-4.98s-.46-3.61-1.36-5.01c-.91-1.4-2.2-2.48-3.87-3.23h0ZM81.63,13.09c-.91.79-2.29,1.18-4.13,1.18h-4.87V5.31h4.87c1.84,0,3.22.39,4.13,1.18.91.79,1.36,1.89,1.36,3.32s-.45,2.5-1.36,3.28Z"/>
  <polygon points="99.84 .44 93.87 .44 93.87 26.25 112.78 26.25 112.78 21.39 99.84 21.39 99.84 .44"/>
  <polygon points="122.66 15.49 134.65 15.49 134.65 10.84 122.66 10.84 122.66 5.24 136.23 5.24 136.23 .44 116.73 .44 116.73 26.25 136.71 26.25 136.71 21.46 122.66 21.46 122.66 15.49"/>
  <path d="M159.83,7.38c.74-.74,1.61-1.3,2.62-1.7,1.01-.39,2.11-.59,3.32-.59,1.28,0,2.46.25,3.54.75,1.08.51,2.06,1.26,2.95,2.27l3.84-3.54c-1.23-1.5-2.75-2.64-4.55-3.41-1.81-.78-3.83-1.16-6.07-1.16-2.02,0-3.87.33-5.57.98-1.7.65-3.18,1.58-4.44,2.78-1.27,1.21-2.25,2.62-2.95,4.24-.7,1.62-1.05,3.4-1.05,5.35s.35,3.72,1.05,5.35c.7,1.62,1.68,3.04,2.93,4.24,1.25,1.21,2.73,2.13,4.44,2.78,1.71.65,3.56.98,5.55.98,2.26,0,4.29-.39,6.1-1.18,1.81-.79,3.32-1.93,4.55-3.43l-3.84-3.54c-.88,1.03-1.87,1.8-2.95,2.3s-2.26.75-3.54.75c-1.21,0-2.31-.2-3.32-.59-1.01-.39-1.88-.96-2.62-1.7-.74-.74-1.31-1.61-1.71-2.62-.41-1.01-.61-2.13-.61-3.36s.2-2.35.61-3.36c.4-1.01.98-1.88,1.71-2.62v.03Z"/>
  <path d="M202.73,3.8c-1.27-1.2-2.75-2.14-4.46-2.8S194.69.01,192.65.01s-3.88.33-5.6.99-3.22,1.6-4.5,2.8c-1.28,1.21-2.27,2.62-2.97,4.24s-1.05,3.39-1.05,5.31.35,3.69,1.05,5.31c.7,1.62,1.68,3.04,2.95,4.24,1.27,1.21,2.77,2.14,4.5,2.8,1.74.66,3.62,1,5.66,1s3.88-.33,5.59-1c1.71-.66,3.2-1.59,4.46-2.78,1.27-1.19,2.25-2.6,2.97-4.24.71-1.63,1.07-3.41,1.07-5.33s-.36-3.72-1.07-5.33-1.7-3.02-2.97-4.22h0ZM200.11,16.7c-.41,1.01-.98,1.88-1.71,2.62-.74.74-1.59,1.3-2.56,1.7-.97.39-2.04.59-3.19.59s-2.22-.2-3.21-.59c-.98-.39-1.84-.96-2.56-1.7-.73-.74-1.29-1.62-1.7-2.64s-.61-2.13-.61-3.34.2-2.35.61-3.36c.4-1.01.98-1.88,1.71-2.62.74-.74,1.59-1.3,2.56-1.7.97-.39,2.03-.59,3.19-.59s2.23.2,3.21.59c.98.39,1.84.96,2.56,1.7.73.74,1.29,1.61,1.7,2.62.4,1.01.61,2.13.61,3.36s-.2,2.35-.61,3.36Z"/>
  <polygon points="235.96 .44 226.46 16.47 216.79 .44 211.85 .44 211.85 26.25 217.46 26.25 217.46 11.1 225.01 23.52 227.7 23.52 235.3 10.76 235.34 26.25 240.94 26.25 240.87 .44 235.96 .44"/>
  <polygon points="271.77 .44 262.26 16.47 252.59 .44 247.65 .44 247.65 26.25 253.26 26.25 253.26 11.1 260.82 23.52 263.51 23.52 271.1 10.76 271.14 26.25 276.74 26.25 276.67 .44 271.77 .44"/>
  <path d="M302.74,26.25h6.27L297.47.44h-5.9l-11.5,25.81h6.12l2.3-5.53h11.96l2.29,5.53h0ZM290.37,16.19l4.11-9.88,4.09,9.88h-8.2,0Z"/>
</svg>